<svg xmlns="http://www.w3.org/2000/svg" viewBox="0 0 960 480" role="img" aria-labelledby="title desc"><title id="title">Flight data monitoring</title><desc id="desc">Architecture schematic · recorded telemetry. IBM DB2 → FastAPI → React dashboard.</desc><defs><marker id="arrow" markerWidth="8" markerHeight="8" refX="6" refY="4" orient="auto"><path d="M0 0 L8 4 L0 8" fill="#246c7f"/></marker></defs><rect width="960" height="480" fill="#f0f6f6"/><g font-family="Arial, sans-serif"><text x="48" y="68" font-size="30" font-weight="700" fill="#243e48">Flight data monitoring</text><text x="48" y="105" font-size="20" fill="#526970">Architecture schematic · recorded telemetry</text><rect x="48" y="175" width="264" height="210" rx="16" fill="white" stroke="#cbdcde"/><circle cx="82" cy="212" r="17" fill="#246c7f"/><text x="82" y="219" text-anchor="middle" font-size="19" fill="white">1</text><text x="70" y="270" font-size="24" font-weight="700" fill="#243e48">IBM DB2</text><text x="70" y="312" font-size="19" fill="#526970">Recorded telemetry</text><text x="70" y="342" font-size="18" fill="#526970">External ingestion</text><path d="M318 278 H340" stroke="#246c7f" stroke-width="3" marker-end="url(#arrow)"/><rect x="348" y="175" width="264" height="210" rx="16" fill="white" stroke="#cbdcde"/><circle cx="382" cy="212" r="17" fill="#246c7f"/><text x="382" y="219" text-anchor="middle" font-size="19" fill="white">2</text><text x="370" y="270" font-size="24" font-weight="700" fill="#243e48">FastAPI</text><text x="370" y="312" font-size="19" fill="#526970">Phase classifiers</text><text x="370" y="342" font-size="18" fill="#526970">Deterministic alarms</text><path d="M618 278 H640" stroke="#246c7f" stroke-width="3" marker-end="url(#arrow)"/><rect x="648" y="175" width="264" height="210" rx="16" fill="white" stroke="#cbdcde"/><circle cx="682" cy="212" r="17" fill="#246c7f"/><text x="682" y="219" text-anchor="middle" font-size="19" fill="white">3</text><text x="670" y="270" font-size="24" font-weight="700" fill="#243e48">React dashboard</text><text x="670" y="312" font-size="19" fill="#526970">Fleet &amp; flight analysis</text><text x="670" y="342" font-size="18" fill="#526970">Maps and summaries</text></g></svg>
